<svg width="54" height="54" viewBox="0 0 54 54" fill="none" xmlns="http://www.w3.org/2000/svg">
<path d="M27 39.0656C26.55 39.0656 26.1281 38.9959 25.7344 38.8564C25.3406 38.7169 24.975 38.4772 24.6375 38.1375L12.4875 25.9875C11.8688 25.3688 11.5594 24.5813 11.5594 23.625C11.5594 22.6688 11.8688 21.8813 12.4875 21.2625C13.1063 20.6438 13.9084 20.3209 14.8939 20.2939C15.8794 20.2669 16.6804 20.5616 17.2969 21.1781L23.625 27.5063V3.37501C23.625 2.41876 23.949 1.61664 24.597 0.968637C25.245 0.320637 26.046 -0.00223832 27 1.16782e-05C27.9562 1.16782e-05 28.7584 0.324012 29.4064 0.972012C30.0544 1.62001 30.3772 2.42101 30.375 3.37501V27.5063L36.7031 21.1781C37.3219 20.5594 38.124 20.2635 39.1095 20.2905C40.095 20.3175 40.896 20.6415 41.5125 21.2625C42.1312 21.8813 42.4406 22.6688 42.4406 23.625C42.4406 24.5813 42.1312 25.3688 41.5125 25.9875L29.3625 38.1375C29.025 38.475 28.6594 38.7146 28.2656 38.8564C27.8719 38.9981 27.45 39.0679 27 39.0656ZM6.75 54C4.89375 54 3.30413 53.3385 1.98113 52.0155C0.65813 50.6925 -0.00224427 49.104 5.73005e-06 47.25V40.5C5.73005e-06 39.5438 0.324006 38.7416 0.972006 38.0936C1.62001 37.4456 2.421 37.1227 3.375 37.125C4.33125 37.125 5.13338 37.449 5.78138 38.097C6.42938 38.745 6.75225 39.546 6.75 40.5V47.25H47.25V40.5C47.25 39.5438 47.574 38.7416 48.222 38.0936C48.87 37.4456 49.671 37.1227 50.625 37.125C51.5812 37.125 52.3834 37.449 53.0314 38.097C53.6794 38.745 54.0022 39.546 54 40.5V47.25C54 49.1062 53.3385 50.6959 52.0155 52.0189C50.6925 53.3419 49.104 54.0022 47.25 54H6.75Z" fill="black"/>
</svg>
