<svg width="15" height="15" viewBox="0 0 15 15" fill="none" xmlns="http://www.w3.org/2000/svg">
<g clip-path="url(#clip0_27_1566)">
<path d="M4.04466 8.68365L2.84961 7.48861L4.29318 6.04503C5.59868 4.73953 7.72279 4.73956 9.02832 6.04503L7.83327 7.24008C7.18678 6.59356 6.13473 6.59353 5.4882 7.24008L4.04466 8.68365Z" fill="#8B8D8E"/>
<path d="M8.42771 9.99412C7.53336 9.99412 6.69254 9.64584 6.06017 9.01341C4.7547 7.70794 4.75467 5.5838 6.06017 4.2783L8.9281 1.41037C9.56053 0.777969 10.4013 0.429688 11.2957 0.429688C12.19 0.429688 13.0308 0.777969 13.6632 1.41037C14.2956 2.04277 14.6439 2.88362 14.6439 3.77794C14.6439 4.67226 14.2956 5.51311 13.6632 6.14551L10.7953 9.01344C10.1629 9.64584 9.32211 9.99412 8.42771 9.99412ZM11.2957 2.11971C10.8528 2.11971 10.4363 2.29221 10.1231 2.60539L7.25519 5.47332C6.60866 6.11987 6.60866 7.17186 7.25519 7.81839C7.56837 8.13157 7.9848 8.30407 8.42771 8.30407C8.87065 8.30407 9.28704 8.1316 9.60023 7.81842L12.4682 4.95046C12.7814 4.63728 12.9539 4.22085 12.9539 3.77794C12.9539 3.335 12.7814 2.9186 12.4682 2.60539C12.155 2.29221 11.7386 2.11971 11.2957 2.11971Z" fill="#646768"/>
<path d="M10.0763 2.06297C9.91208 2.06297 9.75294 1.97578 9.66839 1.82165C9.54493 1.59662 9.62729 1.31411 9.85231 1.19065C10.7716 0.686425 11.8773 0.683671 12.7379 1.18351C12.9598 1.31241 13.0352 1.59685 12.9063 1.81884C12.7774 2.04079 12.493 2.1162 12.271 1.98729C11.6991 1.65513 10.9252 1.66227 10.2994 2.0056C10.231 2.04322 10.1543 2.06295 10.0763 2.06297ZM3.79296 14.6273C2.93553 14.6273 2.07813 14.3009 1.42539 13.6482C0.119922 12.3427 0.119922 10.2186 1.42539 8.91308L3.48979 6.8487L4.68481 8.04375L2.62041 10.1082C1.97389 10.7547 1.97389 11.8067 2.62041 12.4532C2.94364 12.7765 3.36836 12.9381 3.79293 12.9381C4.21762 12.9382 4.64216 12.7765 4.96548 12.4532L7.83341 9.58526C8.14659 9.27208 8.31909 8.85565 8.31909 8.41274C8.31909 7.96983 8.14662 7.55341 7.83341 7.24022L9.02846 6.04518C10.334 7.35067 10.334 9.47484 9.02846 10.7803L6.16053 13.6483C5.50779 14.301 4.65039 14.6273 3.79296 14.6273Z" fill="#8B8D8E"/>
</g>
<defs>
<clipPath id="clip0_27_1566">
<rect width="15" height="15" fill="white"/>
</clipPath>
</defs>
</svg>
