<svg width="30" height="30" viewBox="0 0 30 30" fill="none" xmlns="http://www.w3.org/2000/svg">
<path d="M0 15C0 10.8594 1.46484 7.32421 4.39456 4.39453C7.32421 1.46484 10.8594 0 15 0C19.1406 0 22.6758 1.46484 25.6055 4.39453C28.5351 7.32421 30 10.8594 30 15C30 19.1406 28.5352 22.6758 25.6055 25.6054C22.6758 28.5351 19.1406 30 15 30C10.8594 30 7.32421 28.5352 4.39456 25.6054C1.46484 22.6758 0 19.1406 0 15ZM1.64062 15C1.64062 18.6719 2.94922 21.8164 5.5664 24.4336C8.18359 27.0508 11.3281 28.3594 15 28.3594C18.6719 28.3594 21.8164 27.0508 24.4336 24.4336C27.0508 21.8164 28.3594 18.6719 28.3594 15C28.3594 11.3281 27.0508 8.18359 24.4336 5.5664C21.8164 2.94922 18.6719 1.64062 15 1.64062C11.3281 1.64062 8.18362 2.94922 5.5664 5.5664C2.94922 8.18359 1.64062 11.3281 1.64062 15ZM5.8594 18.2226C5.78127 18.1445 5.78127 18.0664 5.8594 17.9883C6.01562 17.832 6.21096 17.7734 6.44531 17.8125C6.67968 17.8515 6.8164 17.8906 6.85546 17.9297C7.1289 18.0469 7.43165 18.3105 7.76365 18.7207C8.09565 19.1309 8.35934 19.414 8.55468 19.5703C9.49218 20.3515 10.4492 20.4101 11.4257 19.7461C11.5039 19.4726 11.6308 19.2383 11.8066 19.0429C11.9823 18.8476 12.1484 18.7109 12.3046 18.6328C12.4609 18.5546 12.7344 18.4375 13.125 18.2812C11.8359 18.164 10.791 17.9394 9.99021 17.6074C9.18943 17.2753 8.55465 16.8554 8.0859 16.3476C7.4609 15.6445 7.08003 14.7265 6.94331 13.5937C6.80656 12.4609 6.89446 11.4257 7.20699 10.4882C7.44137 9.9023 7.7734 9.37499 8.20306 8.90621C7.89056 7.92965 7.94915 6.81637 8.37884 5.56637C9.62884 5.6445 10.7616 6.07418 11.7773 6.85543C13.7304 6.34762 15.7616 6.32809 17.871 6.79684C18.1444 6.60153 18.5644 6.3574 19.1307 6.0644C19.6971 5.77143 20.41 5.6054 21.2694 5.56634C21.4257 5.99603 21.5331 6.50384 21.5917 7.08978C21.6503 7.67571 21.621 8.22259 21.5038 8.7304C22.4022 9.6679 22.871 10.9179 22.91 12.4804C22.91 13.7304 22.6952 14.7655 22.2655 15.5859C21.8359 16.4062 21.0741 17.0898 19.9804 17.6366C19.2382 17.9882 18.2616 18.203 17.0507 18.2811C17.5976 18.5546 17.998 18.8378 18.2519 19.1308C18.5058 19.4237 18.6718 19.8827 18.75 20.5077V22.3534L18.8085 24.1405C18.9257 24.3359 19.0625 24.5019 19.2187 24.6386C19.375 24.7754 19.5117 24.873 19.6289 24.9316C19.746 24.9902 19.7851 25.0781 19.746 25.1953C19.707 25.3125 19.5507 25.3711 19.2773 25.3711C18.6132 25.3711 18.0859 25.1367 17.6953 24.6679C17.5781 24.4726 17.5195 24.2383 17.5195 23.9648V21.1523C17.5195 20.8398 17.4414 20.6152 17.2851 20.4785C17.1289 20.3417 16.9726 20.2538 16.8164 20.2148V23.9062C16.8164 24.5702 16.8945 24.9999 17.0508 25.1952C17.207 25.3905 17.3047 25.5859 17.3438 25.7812C17.3828 25.8202 17.3535 25.8495 17.2559 25.869C17.1582 25.8885 16.9922 25.8593 16.7578 25.7812C16.25 25.664 15.8984 25.4003 15.7031 24.9901C15.5078 24.58 15.4101 24.1405 15.4101 23.6718V20.039H14.6484V23.6719C14.6484 24.1406 14.5507 24.5898 14.3554 25.0195C14.082 25.5664 13.5742 25.8594 12.832 25.8984C12.7148 25.8594 12.6562 25.8203 12.6562 25.7813C12.6953 25.7422 12.8125 25.5469 13.0078 25.1953C13.0469 25.1172 13.0957 24.9609 13.1543 24.7266C13.2129 24.4922 13.2422 24.2188 13.2422 23.9063V20.2148C13.086 20.2539 12.9395 20.3418 12.8027 20.4785C12.666 20.6153 12.5976 20.8399 12.5976 21.1524V23.9648C12.5976 24.2383 12.5391 24.4727 12.4219 24.668C12.0703 25.1367 11.543 25.3711 10.8399 25.3711C10.5664 25.3711 10.4102 25.3125 10.3711 25.1953C10.332 25.1172 10.3418 25.0488 10.4004 24.9903C10.459 24.9317 10.5469 24.8633 10.6641 24.7852C10.7813 24.707 10.8594 24.6484 10.8985 24.6094C11.0547 24.4922 11.1719 24.3359 11.25 24.1406C11.3672 23.9844 11.3965 23.5742 11.3379 22.9102C11.2793 22.2461 11.2695 21.8164 11.3086 21.6211C10.293 21.9727 9.25783 21.7969 8.20312 21.0938C7.89062 20.7813 7.57812 20.332 7.26562 19.7461C7.03124 19.3164 6.56249 18.8086 5.8594 18.2226Z" fill="black"/>
</svg>
