<svg width="59" height="59" viewBox="0 0 59 59" fill="none" xmlns="http://www.w3.org/2000/svg">
<path d="M29.5 37.375C31.6875 37.375 33.5469 36.6094 35.0781 35.0781C36.6094 33.5469 37.375 31.6875 37.375 29.5C37.375 27.3125 36.6094 25.4531 35.0781 23.9219C33.5469 22.3906 31.6875 21.625 29.5 21.625C27.3125 21.625 25.4531 22.3906 23.9219 23.9219C22.3906 25.4531 21.625 27.3125 21.625 29.5C21.625 31.6875 22.3906 33.5469 23.9219 35.0781C25.4531 36.6094 27.3125 37.375 29.5 37.375ZM29.5 42.625C25.8688 42.625 22.773 41.3449 20.2128 38.7846C17.6525 36.2244 16.3733 33.1295 16.375 29.5C16.375 25.8688 17.6551 22.773 20.2154 20.2128C22.7756 17.6525 25.8705 16.3733 29.5 16.375C33.1313 16.375 36.227 17.6551 38.7873 20.2154C41.3475 22.7756 42.6268 25.8705 42.625 29.5C42.625 33.1313 41.3449 36.227 38.7846 38.7873C36.2244 41.3475 33.1295 42.6268 29.5 42.625ZM3.25001 32.125C2.50626 32.125 1.88238 31.873 1.37838 31.369C0.874384 30.865 0.623259 30.242 0.625009 29.5C0.625009 28.7563 0.877009 28.1324 1.38101 27.6284C1.88501 27.1244 2.50801 26.8733 3.25001 26.875H8.50001C9.24376 26.875 9.86763 27.127 10.3716 27.631C10.8756 28.135 11.1268 28.758 11.125 29.5C11.125 30.2438 10.873 30.8676 10.369 31.3716C9.86501 31.8756 9.24201 32.1268 8.50001 32.125H3.25001ZM50.5 32.125C49.7563 32.125 49.1324 31.873 48.6284 31.369C48.1244 30.865 47.8733 30.242 47.875 29.5C47.875 28.7563 48.127 28.1324 48.631 27.6284C49.135 27.1244 49.758 26.8733 50.5 26.875H55.75C56.4938 26.875 57.1176 27.127 57.6216 27.631C58.1256 28.135 58.3768 28.758 58.375 29.5C58.375 30.2438 58.123 30.8676 57.619 31.3716C57.115 31.8756 56.492 32.1268 55.75 32.125H50.5ZM29.5 11.125C28.7563 11.125 28.1324 10.873 27.6284 10.369C27.1244 9.86501 26.8733 9.24201 26.875 8.50001V3.25001C26.875 2.50626 27.127 1.88238 27.631 1.37838C28.135 0.874384 28.758 0.623259 29.5 0.625009C30.2438 0.625009 30.8676 0.877009 31.3716 1.38101C31.8756 1.88501 32.1268 2.50801 32.125 3.25001V8.50001C32.125 9.24376 31.873 9.86763 31.369 10.3716C30.865 10.8756 30.242 11.1268 29.5 11.125ZM29.5 58.375C28.7563 58.375 28.1324 58.123 27.6284 57.619C27.1244 57.115 26.8733 56.492 26.875 55.75V50.5C26.875 49.7563 27.127 49.1324 27.631 48.6284C28.135 48.1244 28.758 47.8733 29.5 47.875C30.2438 47.875 30.8676 48.127 31.3716 48.631C31.8756 49.135 32.1268 49.758 32.125 50.5V55.75C32.125 56.4938 31.873 57.1176 31.369 57.6216C30.865 58.1256 30.242 58.3768 29.5 58.375ZM12.8313 16.5063L10.0094 13.75C9.48438 13.2688 9.23238 12.6563 9.25338 11.9125C9.27438 11.1688 9.52638 10.5344 10.0094 10.0094C10.5344 9.48438 11.1688 9.22188 11.9125 9.22188C12.6563 9.22188 13.2688 9.48438 13.75 10.0094L16.5063 12.8313C16.9875 13.3563 17.2281 13.9688 17.2281 14.6688C17.2281 15.3688 16.9875 15.9813 16.5063 16.5063C16.025 17.0313 15.4239 17.2833 14.7029 17.2623C13.9819 17.2413 13.358 16.9893 12.8313 16.5063ZM45.25 48.9906L42.4938 46.1688C42.0125 45.6438 41.7719 45.0199 41.7719 44.2971C41.7719 43.5744 42.0125 42.9733 42.4938 42.4938C42.975 41.9688 43.577 41.7176 44.2998 41.7404C45.0225 41.7631 45.6455 42.0143 46.1688 42.4938L48.9906 45.25C49.5156 45.7313 49.7676 46.3438 49.7466 47.0875C49.7256 47.8313 49.4736 48.4656 48.9906 48.9906C48.4656 49.5156 47.8313 49.7781 47.0875 49.7781C46.3438 49.7781 45.7313 49.5156 45.25 48.9906ZM42.4938 16.5063C41.9688 16.025 41.7168 15.4239 41.7378 14.7029C41.7588 13.9819 42.0108 13.358 42.4938 12.8313L45.25 10.0094C45.7313 9.48438 46.3438 9.23238 47.0875 9.25338C47.8313 9.27438 48.4656 9.52638 48.9906 10.0094C49.5156 10.5344 49.7781 11.1688 49.7781 11.9125C49.7781 12.6563 49.5156 13.2688 48.9906 13.75L46.1688 16.5063C45.6438 16.9875 45.0313 17.2281 44.3313 17.2281C43.6313 17.2281 43.0188 16.9875 42.4938 16.5063ZM10.0094 48.9906C9.48438 48.4656 9.22188 47.8313 9.22188 47.0875C9.22188 46.3438 9.48438 45.7313 10.0094 45.25L12.8313 42.4938C13.3563 42.0125 13.9793 41.7719 14.7003 41.7719C15.4213 41.7719 16.0233 42.0125 16.5063 42.4938C17.0313 42.975 17.2833 43.577 17.2623 44.2998C17.2413 45.0225 16.9893 45.6455 16.5063 46.1688L13.75 48.9906C13.2688 49.5156 12.6563 49.7676 11.9125 49.7466C11.1688 49.7256 10.5344 49.4736 10.0094 48.9906Z" fill="black"/>
</svg>
