<svg width="24" height="24" viewBox="0 0 24 24" fill="none" xmlns="http://www.w3.org/2000/svg">
<path d="M11.9996 2C11.4996 2 10.9996 2.19 10.5896 2.59L7.28957 5.88L11.9996 10.58L16.7096 5.88L13.4096 2.59C12.9996 2.19 12.4996 2 11.9996 2ZM5.87957 7.29L2.58957 10.59C1.79957 11.37 1.79957 12.63 2.58957 13.41L5.87957 16.71L10.5796 12L5.87957 7.29ZM18.1196 7.29L13.4196 12L18.1196 16.71L21.4096 13.41C22.1996 12.63 22.1996 11.37 21.4096 10.59L18.1196 7.29ZM11.9996 13.42L7.28957 18.12L10.5896 21.41C11.3696 22.2 12.6296 22.2 13.4096 21.41L16.7096 18.12L11.9996 13.42Z" fill="#A81717" fill-opacity="0.5"/>
</svg>
