<svg width="37" height="29" viewBox="0 0 37 29" fill="none" xmlns="http://www.w3.org/2000/svg">
<path d="M36.4224 3.43095C35.0827 4.01337 33.6437 4.4071 32.1309 4.58407C33.6749 3.67822 34.8578 2.24276 35.4163 0.534328C33.9495 1.38782 32.3444 1.98867 30.6704 2.31079C29.3082 0.888185 27.3656 0 25.2165 0C21.0913 0 17.7458 3.27636 17.7458 7.32025C17.7458 7.89323 17.8117 8.45222 17.9383 8.98891C11.7285 8.68314 6.22306 5.76886 2.53799 1.34059C1.89452 2.4221 1.52621 3.67954 1.52621 5.02117C1.52621 7.56053 2.84545 9.80103 4.85001 11.1135C3.66334 11.0774 2.50272 10.7636 1.46516 10.1983V10.2908C1.46516 13.8378 4.04027 16.7955 7.45859 17.4681C6.83065 17.6367 6.17166 17.7248 5.4899 17.7248C5.00788 17.7248 4.54023 17.6801 4.08338 17.5959C5.03421 20.5032 7.79363 22.6194 11.0623 22.6792C8.50509 24.6432 5.28294 25.8139 1.78332 25.8139C1.18055 25.8139 0.584828 25.7786 0 25.7096C3.30712 27.7872 7.23378 29 11.4534 29C25.1961 29 32.7121 17.8455 32.7121 8.17225C32.7121 7.85467 32.705 7.53946 32.6894 7.22539C34.1537 6.18768 35.4178 4.90282 36.4224 3.43095Z" fill="black"/>
</svg>
