<svg width="22" height="22" viewBox="0 0 22 22" fill="none" xmlns="http://www.w3.org/2000/svg">
<path fill-rule="evenodd" clip-rule="evenodd" d="M10.75 1.5C8.29675 1.5 5.94398 2.47455 4.20927 4.20926C2.47456 5.94397 1.50001 8.29675 1.50001 10.75C1.50001 12.231 1.84801 13.629 2.46501 14.868C2.71301 15.366 2.80801 15.96 2.65201 16.545L2.05601 18.77C2.03098 18.8632 2.03093 18.9614 2.05586 19.0546C2.08078 19.1479 2.12981 19.2329 2.198 19.3012C2.2662 19.3695 2.35117 19.4187 2.44438 19.4437C2.53759 19.4688 2.63575 19.4689 2.72901 19.444L4.95601 18.848C5.51879 18.704 6.11481 18.7705 6.63201 19.035C7.9112 19.6718 9.32106 20.0022 10.75 20C13.2033 20 15.556 19.0254 17.2907 17.2907C19.0255 15.556 20 13.2033 20 10.75C20 8.29675 19.0255 5.94397 17.2907 4.20926C15.556 2.47455 13.2033 1.5 10.75 1.5ZM7.84631e-06 10.75C7.84631e-06 4.813 4.81301 0 10.75 0C16.687 0 21.5 4.813 21.5 10.75C21.5 16.687 16.687 21.5 10.75 21.5C9.03201 21.5 7.40601 21.096 5.96301 20.378C5.77295 20.2768 5.55253 20.2484 5.34301 20.298L3.11701 20.893C1.59301 21.301 0.199008 19.907 0.607008 18.383L1.20301 16.157C1.25265 15.9475 1.22421 15.7271 1.12301 15.537C0.382463 14.05 -0.00200286 12.4112 7.84631e-06 10.75ZM14.022 6.572C15.257 7.034 16 8.289 16 9.858C16 10.774 15.565 11.632 15.045 12.345C14.516 13.069 13.835 13.729 13.207 14.263L13.114 14.343C12.377 14.971 11.764 15.493 10.75 15.493C9.73501 15.493 9.12301 14.971 8.38601 14.343L8.29301 14.263C7.66401 13.729 6.98401 13.069 6.45501 12.345C5.93501 11.632 5.50001 10.775 5.50001 9.858C5.50001 8.289 6.24301 7.034 7.47801 6.572C8.52101 6.182 9.70801 6.435 10.75 7.246C11.793 6.436 12.98 6.182 14.022 6.572ZM13.497 7.977C12.979 7.784 12.155 7.887 11.286 8.774C11.2162 8.84536 11.1328 8.90205 11.0407 8.94076C10.9487 8.97946 10.8499 8.9994 10.75 8.9994C10.6502 8.9994 10.5513 8.97946 10.4593 8.94076C10.3672 8.90205 10.2838 8.84536 10.214 8.774C9.34501 7.887 8.52101 7.784 8.00401 7.977C7.49401 8.167 7.00001 8.751 7.00001 9.858C7.00001 10.311 7.22501 10.855 7.66601 11.46C8.09901 12.053 8.68301 12.626 9.26401 13.12C10.133 13.86 10.336 13.993 10.75 13.993C11.164 13.993 11.367 13.859 12.236 13.12C12.817 12.626 13.401 12.053 13.834 11.46C14.275 10.855 14.5 10.311 14.5 9.858C14.5 8.751 14.005 8.167 13.497 7.977Z" fill="#A81717" fill-opacity="0.5"/>
</svg>
